<svg width="640" height="420" viewBox="0 0 640 420" xmlns="http://www.w3.org/2000/svg" fill="none">
  <defs>
    <linearGradient id="g1" x1="0" y1="0" x2="640" y2="420" gradientUnits="userSpaceOnUse">
      <stop stop-color="#E8F7F0"/>
      <stop offset="1" stop-color="#CFECDC"/>
    </linearGradient>
  </defs>
  <rect width="640" height="420" rx="24" fill="url(#g1)"/>
  <rect x="70" y="70" width="190" height="280" rx="20" fill="#3B7A57" opacity="0.15"/>
  <rect x="145" y="95" width="36" height="42" rx="8" fill="#3B7A57"/>
  <rect x="120" y="150" width="88" height="165" rx="16" fill="#57A77A"/>
  <path d="M350 100h170c11 0 20 9 20 20v200c0 11-9 20-20 20H350c-11 0-20-9-20-20V120c0-11 9-20 20-20Z" fill="#66B48A"/>
  <path d="M371 138h128c8 0 14 6 14 14v136c0 8-6 14-14 14H371c-8 0-14-6-14-14V152c0-8 6-14 14-14Z" fill="#E8F7F0"/>
  <path d="M392 163h86M392 194h86M392 225h86M392 256h56" stroke="#6AA886" stroke-width="10" stroke-linecap="round"/>
</svg>
